<svg xmlns="http://www.w3.org/2000/svg" viewBox="0 0 24 24" stroke="#EEB854">
    <g>
        <path d="M17.601,21.938c-0.367,0-0.725-0.137-1.011-0.401l-4.25-3.903c-0.191-0.176-0.489-0.176-0.679-0.001
            L7.41,21.537c-0.444,0.41-1.064,0.515-1.619,0.271c-0.554-0.243-0.898-0.769-0.898-1.374V4.562c0-1.378,1.122-2.5,2.5-2.5h9.215
            c1.378,0,2.5,1.122,2.5,2.5v15.872c0,0.605-0.344,1.132-0.898,1.375C18.011,21.895,17.804,21.938,17.601,21.938z M11.999,16.502
            c0.366,0,0.732,0.132,1.018,0.396l4.251,3.904c0.223,0.206,0.469,0.121,0.539,0.09c0.07-0.031,0.3-0.154,0.3-0.458V4.562
            c0-0.827-0.673-1.5-1.5-1.5H7.393c-0.827,0-1.5,0.673-1.5,1.5v15.872c0,0.303,0.229,0.427,0.3,0.458
            c0.07,0.031,0.316,0.116,0.54-0.09l4.251-3.905C11.268,16.634,11.633,16.502,11.999,16.502z"/>
        <path d="M14.85,9.079c-0.11,0.12-0.23,0.23-0.35,0.35c-0.83,0.83-1.65,1.65-2.47,2.48
            c-0.2,0.19-0.52,0.19-0.71,0c-0.47-0.48-0.94-0.95-1.42-1.42c-0.45-0.46,0.25-1.16,0.71-0.71c0.35,0.36,0.7,0.71,1.06,1.06
            c0.83-0.82,1.65-1.65,2.48-2.47C14.6,7.909,15.31,8.619,14.85,9.079z"/>
    </g>
</svg>